<svg xmlns="http://www.w3.org/2000/svg" viewBox="0 0 96 96" role="img" aria-labelledby="title">
  <title id="title">Amazon Science</title>
  <rect width="96" height="96" rx="20" fill="#fff"/>
  <path d="M29.3 34.2c4.3-4.2 10.2-6.5 17.9-6.5 8.3 0 14.5 2.1 18.5 6.2 3.8 3.9 5.7 9.8 5.7 17.8v16.9h-9.7l-1.2-5.3c-4.1 4.2-9.2 6.3-15.4 6.3-5.7 0-10.3-1.5-13.8-4.5-3.4-3-5.1-6.9-5.1-11.8 0-5.4 2.1-9.6 6.4-12.6 4.3-3 10.4-4.5 18.4-4.5h8.6v-1c0-4-1-6.9-3.1-8.8-2.1-1.9-5.3-2.8-9.6-2.8-5.3 0-9.8 1.5-13.5 4.6l-4.1-10zM59.6 50.1v-2.5h-7.7c-8.3 0-12.5 2-12.5 6.1 0 2.1.8 3.8 2.4 5 1.6 1.2 3.8 1.8 6.6 1.8 3.5 0 6.2-1 8.2-3.1 2-2 3-4.5 3-7.3z" fill="#232F3E"/>
  <path d="M25 73.2c12.1 6.5 27.5 6.8 39.9.8 1.9-.9 3.8 1.6 2.1 3-10.6 8.5-30.1 8.9-42.8 1.2-2-1.2-1.2-6.1.8-5z" fill="#FF9900"/>
  <path d="M68.4 70.6c2.7-.2 8.5.5 9.7 2 1.2 1.5-1.4 6.9-2.9 9.3-.5.8-1.6.4-1.4-.5.6-2.7 1.9-6.1 1-7.2-.9-1.1-4.6-.8-7.4-.5-.9.1-1.1-1 .1-1.5.2-.1.5-.2.9-.3z" fill="#FF9900"/>
</svg>
