<svg xmlns="http://www.w3.org/2000/svg" viewBox="0 0 96 96" role="img" aria-labelledby="title">
  <title id="title">Google Cloud AI Research</title>
  <rect width="96" height="96" rx="20" fill="#fff"/>
  <path d="M33.5 61.5h31.4c7.2 0 13.1-5.8 13.1-13 0-6.3-4.5-11.8-10.7-12.8C64.8 26.4 56.5 20 47 20c-8.2 0-15.4 4.7-18.9 11.6C19.7 32.6 13 39.7 13 48.4c0 7.2 5.4 13.1 12.4 13.1h8.1z" fill="none" stroke="#1A73E8" stroke-width="8" stroke-linecap="round" stroke-linejoin="round"/>
  <path d="M28.1 31.6C31.6 24.7 38.8 20 47 20c6.1 0 11.8 2.6 15.8 7.1" fill="none" stroke="#34A853" stroke-width="8" stroke-linecap="round"/>
  <path d="M25.4 61.5C18.4 61.5 13 55.6 13 48.4c0-5.4 2.6-10.2 6.7-13.2" fill="none" stroke="#FBBC04" stroke-width="8" stroke-linecap="round"/>
  <path d="M64.9 61.5c7.2 0 13.1-5.8 13.1-13 0-4.9-2.7-9.3-6.8-11.5" fill="none" stroke="#EA4335" stroke-width="8" stroke-linecap="round"/>
</svg>
